<?xml version="1.0" encoding="UTF-8"?>
<!DOCTYPE svg PUBLIC "-//W3C//DTD SVG 1.1//EN" "http://www.w3.org/Graphics/SVG/1.1/DTD/svg11.dtd">
<svg xmlns="http://www.w3.org/2000/svg" version="1.1" width="905px" height="916px" style="shape-rendering:geometricPrecision; text-rendering:geometricPrecision; image-rendering:optimizeQuality; fill-rule:evenodd; clip-rule:evenodd" xmlns:xlink="http://www.w3.org/1999/xlink">
<g><path style="opacity:1" fill="#f9fa00" d="M -0.5,-0.5 C -0.166667,-0.5 0.166667,-0.5 0.5,-0.5C 0.31468,0.170143 -0.0186536,0.170143 -0.5,-0.5 Z"/></g>
<g><path style="opacity:1" fill="#1f7612" d="M 335.5,18.5 C 334.661,19.6412 333.994,20.9745 333.5,22.5C 351.262,53.226 368.929,83.8927 386.5,114.5C 387.5,117.167 388.5,119.833 389.5,122.5C 389.603,133.101 386.769,142.767 381,151.5C 374.383,158.15 366.383,160.817 357,159.5C 350.465,159.433 343.965,158.933 337.5,158C 336,155.833 334.833,156 334,158.5C 333.583,157.244 332.75,156.577 331.5,156.5C 326.746,141.557 324.413,126.224 324.5,110.5C 326.431,84.0913 325.598,57.758 322,31.5C 318.69,22.7452 316.524,13.7452 315.5,4.5C 318.016,4.75526 320.35,5.58859 322.5,7C 327.027,10.6987 331.361,14.532 335.5,18.5 Z"/></g>
<g><path style="opacity:1" fill="#82c743" d="M 335.5,18.5 C 339.192,21.8617 342.859,25.1951 346.5,28.5C 345.883,28.6107 345.383,28.944 345,29.5C 343.667,28.1667 342.333,26.8333 341,25.5C 340.685,26.9078 341.018,28.2411 342,29.5C 348.678,36.5086 356.178,42.1752 364.5,46.5C 366.734,52.0676 370.734,56.0676 376.5,58.5C 379.187,62.3529 382.854,64.8529 387.5,66C 392.934,72.4069 399.267,77.9069 406.5,82.5C 408.656,84.6289 410.323,86.9622 411.5,89.5C 407.543,89.0084 403.877,89.6751 400.5,91.5C 398.107,89.7234 396.44,87.3901 395.5,84.5C 392.888,83.2213 390.555,81.5547 388.5,79.5C 387.614,80.325 387.281,81.325 387.5,82.5C 385.143,82.3367 382.81,82.5034 380.5,83C 378.82,83.3468 377.82,84.3468 377.5,86C 380.655,91.8229 383.155,97.9896 385,104.5C 386.648,105.717 388.481,106.55 390.5,107C 389.448,108.119 388.281,108.619 387,108.5C 386.505,110.473 386.338,112.473 386.5,114.5C 368.929,83.8927 351.262,53.226 333.5,22.5C 333.994,20.9745 334.661,19.6412 335.5,18.5 Z"/></g>
<g><path style="opacity:1" fill="#96d950" d="M 346.5,28.5 C 378.057,57.8969 412.057,84.0636 448.5,107C 506.819,152.669 522.986,210.502 497,280.5C 495.347,284.482 492.68,287.482 489,289.5C 483.504,280.513 478.504,271.179 474,261.5C 472.334,258.669 470.168,256.336 467.5,254.5C 467.953,253.542 468.619,252.708 469.5,252C 443.685,208.183 417.019,165.017 389.5,122.5C 388.5,119.833 387.5,117.167 386.5,114.5C 386.338,112.473 386.505,110.473 387,108.5C 388.281,108.619 389.448,108.119 390.5,107C 388.481,106.55 386.648,105.717 385,104.5C 383.155,97.9896 380.655,91.8229 377.5,86C 377.82,84.3468 378.82,83.3468 380.5,83C 382.81,82.5034 385.143,82.3367 387.5,82.5C 387.281,81.325 387.614,80.325 388.5,79.5C 390.555,81.5547 392.888,83.2213 395.5,84.5C 396.44,87.3901 398.107,89.7234 400.5,91.5C 403.877,89.6751 407.543,89.0084 411.5,89.5C 410.323,86.9622 408.656,84.6289 406.5,82.5C 399.267,77.9069 392.934,72.4069 387.5,66C 382.854,64.8529 379.187,62.3529 376.5,58.5C 370.734,56.0676 366.734,52.0676 364.5,46.5C 356.178,42.1752 348.678,36.5086 342,29.5C 341.018,28.2411 340.685,26.9078 341,25.5C 342.333,26.8333 343.667,28.1667 345,29.5C 345.383,28.944 345.883,28.6107 346.5,28.5 Z"/></g>
<g><path style="opacity:1" fill="#7cba43" d="M 389.5,122.5 C 417.019,165.017 443.685,208.183 469.5,252C 468.619,252.708 467.953,253.542 467.5,254.5C 442.803,256.076 419.803,250.576 398.5,238C 366.469,218.803 344.136,191.636 331.5,156.5C 332.75,156.577 333.583,157.244 334,158.5C 334.833,156 336,155.833 337.5,158C 343.965,158.933 350.465,159.433 357,159.5C 366.383,160.817 374.383,158.15 381,151.5C 386.769,142.767 389.603,133.101 389.5,122.5 Z"/></g>
<g><path style="opacity:1" fill="#96d950" d="M 527.5,355.5 C 525.401,356.612 523.067,357.279 520.5,357.5C 520.954,360.14 522.121,362.473 524,364.5C 550.039,390.978 568.873,421.812 580.5,457C 580.472,458.07 580.139,458.903 579.5,459.5C 568.742,452.067 557.742,445.067 546.5,438.5C 526.424,405.924 500.091,379.424 467.5,359C 451.079,351.792 434.412,345.125 417.5,339C 385.61,330.324 353.277,327.991 320.5,332C 302.641,335.548 284.974,339.881 267.5,345C 224.518,361.961 189.684,389.461 163,427.5C 147.638,448.891 135.971,472.225 128,497.5C 123.02,517.576 117.853,537.576 112.5,557.5C 112.047,558.458 111.381,559.292 110.5,560C 111.094,560.464 111.761,560.631 112.5,560.5C 112.5,561.167 112.5,561.833 112.5,562.5C 109.819,566.528 107.653,570.861 106,575.5C 101.513,590.448 97.3464,605.448 93.5,620.5C 91.8539,619.221 90.6872,617.555 90,615.5C 79.3321,575.486 74.9988,534.82 77,493.5C 83.6729,416.977 116.506,354.477 175.5,306C 211.881,278.434 253.047,265.934 299,268.5C 332.53,269.873 365.03,276.373 396.5,288C 438.725,304.278 478.058,325.611 514.5,352C 518.533,354.354 522.866,355.52 527.5,355.5 Z"/></g>
<g><path style="opacity:1" fill="#95d950" d="M 772.5,719.5 C 770.281,718.46 768.281,718.96 766.5,721C 722.274,766.286 669.274,796.286 607.5,811C 521.691,828.201 453.691,801.534 403.5,731C 406.304,731.468 408.971,730.968 411.5,729.5C 411.833,729.5 412.167,729.5 412.5,729.5C 412.328,730.492 412.662,731.158 413.5,731.5C 414.823,733.686 416.823,735.186 419.5,736C 466.347,748.823 511.347,744.156 554.5,722C 569.157,712.848 582.49,702.014 594.5,689.5C 638.2,660.447 668.7,621.114 686,571.5C 707.195,512.522 706.528,453.855 684,395.5C 672.133,368.304 652.966,348.471 626.5,336C 608.372,329.377 590.372,327.877 572.5,331.5C 554.638,331.313 536.971,329.146 519.5,325C 510.656,322.664 503.156,318.164 497,311.5C 496.01,307.478 497.677,305.478 502,305.5C 510.797,306.709 519.63,307.209 528.5,307C 548.287,303.643 567.954,299.643 587.5,295C 622.859,287.841 657.859,289.174 692.5,299C 734.189,316.016 765.022,344.849 785,385.5C 803.325,424.779 813.658,466.112 816,509.5C 823.628,584.29 809.128,654.29 772.5,719.5 Z"/></g>
<g><path style="opacity:1" fill="#82c744" d="M 594.5,689.5 C 629.118,649.046 641.952,602.379 633,549.5C 625.139,513.425 607.306,483.425 579.5,459.5C 580.139,458.903 580.472,458.07 580.5,457C 568.873,421.812 550.039,390.978 524,364.5C 522.121,362.473 520.954,360.14 520.5,357.5C 523.067,357.279 525.401,356.612 527.5,355.5C 544.726,357.154 558.893,351.487 570,338.5C 571.411,336.35 572.245,334.016 572.5,331.5C 590.372,327.877 608.372,329.377 626.5,336C 652.966,348.471 672.133,368.304 684,395.5C 706.528,453.855 707.195,512.522 686,571.5C 668.7,621.114 638.2,660.447 594.5,689.5 Z"/></g>
<g><path style="opacity:1" fill="#83c743" d="M 546.5,438.5 C 531.858,432.118 516.858,426.618 501.5,422C 500.056,421.219 498.723,421.386 497.5,422.5C 498.127,423.417 498.461,424.417 498.5,425.5C 498.5,426.167 498.167,426.5 497.5,426.5C 494.808,423.819 491.475,422.486 487.5,422.5C 487.351,420.649 487.351,418.816 487.5,417C 470.985,408.12 453.319,403.12 434.5,402C 384.54,399.161 339.207,411.995 298.5,440.5C 254.568,472.121 222.401,512.788 202,562.5C 190.754,595.626 186.754,629.626 190,664.5C 190.864,676.218 192.198,687.885 194,699.5C 200.008,723.187 207.008,746.52 215,769.5C 215.671,770.252 216.504,770.586 217.5,770.5C 217.337,772.857 217.503,775.19 218,777.5C 229.399,809.295 243.232,839.962 259.5,869.5C 259.137,870.183 258.804,870.85 258.5,871.5C 201.86,832.34 162.027,780.006 139,714.5C 122.484,665.561 114.151,615.227 114,563.5C 113.617,562.944 113.117,562.611 112.5,562.5C 112.5,561.833 112.5,561.167 112.5,560.5C 114.411,560.574 115.578,561.574 116,563.5C 116.818,560.773 116.652,558.106 115.5,555.5C 114.482,556.193 113.482,556.859 112.5,557.5C 117.853,537.576 123.02,517.576 128,497.5C 135.971,472.225 147.638,448.891 163,427.5C 189.684,389.461 224.518,361.961 267.5,345C 284.974,339.881 302.641,335.548 320.5,332C 353.277,327.991 385.61,330.324 417.5,339C 434.412,345.125 451.079,351.792 467.5,359C 500.091,379.424 526.424,405.924 546.5,438.5 Z"/></g>
<g><path style="opacity:1" fill="#96d950" d="M 487.5,422.5 C 429.528,416.753 381.695,435.753 344,479.5C 310.532,529.493 305.199,582.493 328,638.5C 330.748,635.266 333.248,631.932 335.5,628.5C 332.168,634.69 329.001,641.023 326,647.5C 312.45,691.835 313.617,735.835 329.5,779.5C 328.675,780.386 327.675,780.719 326.5,780.5C 313.618,773.227 300.285,766.727 286.5,761C 273.959,756.113 260.959,754.113 247.5,755C 235.656,756.754 225.656,761.921 217.5,770.5C 216.504,770.586 215.671,770.252 215,769.5C 207.008,746.52 200.008,723.187 194,699.5C 192.198,687.885 190.864,676.218 190,664.5C 186.754,629.626 190.754,595.626 202,562.5C 222.401,512.788 254.568,472.121 298.5,440.5C 339.207,411.995 384.54,399.161 434.5,402C 453.319,403.12 470.985,408.12 487.5,417C 487.351,418.816 487.351,420.649 487.5,422.5 Z"/></g>
<g><path style="opacity:1" fill="#1f7612" d="M 546.5,438.5 C 557.742,445.067 568.742,452.067 579.5,459.5C 607.306,483.425 625.139,513.425 633,549.5C 641.952,602.379 629.118,649.046 594.5,689.5C 582.49,702.014 569.157,712.848 554.5,722C 511.347,744.156 466.347,748.823 419.5,736C 416.823,735.186 414.823,733.686 413.5,731.5C 443.094,722.039 470.094,707.872 494.5,689C 498.107,685.902 501.107,682.402 503.5,678.5C 550.407,630.863 563.573,574.863 543,510.5C 539.724,501.503 536.557,492.503 533.5,483.5C 533.938,483.565 534.272,483.399 534.5,483C 524.865,462.203 512.865,443.036 498.5,425.5C 498.461,424.417 498.127,423.417 497.5,422.5C 498.723,421.386 500.056,421.219 501.5,422C 516.858,426.618 531.858,432.118 546.5,438.5 Z"/></g>
<g><path style="opacity:1" fill="#37882b" d="M 498.5,425.5 C 512.865,443.036 524.865,462.203 534.5,483C 534.272,483.399 533.938,483.565 533.5,483.5C 523.146,463.476 511.146,444.476 497.5,426.5C 498.167,426.5 498.5,426.167 498.5,425.5 Z"/></g>
<g><path style="opacity:1" fill="#237a14" d="M 112.5,560.5 C 111.761,560.631 111.094,560.464 110.5,560C 111.381,559.292 112.047,558.458 112.5,557.5C 113.482,556.859 114.482,556.193 115.5,555.5C 116.652,558.106 116.818,560.773 116,563.5C 115.578,561.574 114.411,560.574 112.5,560.5 Z"/></g>
<g><path style="opacity:1" fill="#86c946" d="M 385.5,557.5 C 393.692,557.559 396.859,561.559 395,569.5C 390.929,579.26 383.762,584.76 373.5,586C 369.43,573.031 373.43,563.531 385.5,557.5 Z"/></g>
<g><path style="opacity:1" fill="#83c844" d="M 411.5,729.5 C 408.971,730.968 406.304,731.468 403.5,731C 453.691,801.534 521.691,828.201 607.5,811C 669.274,796.286 722.274,766.286 766.5,721C 768.281,718.96 770.281,718.46 772.5,719.5C 742.13,778.387 701.796,829.554 651.5,873C 638.766,883.388 624.766,891.721 609.5,898C 586.447,903.442 563.781,902.108 541.5,894C 525.658,885.497 508.991,879.164 491.5,875C 479.167,873.326 466.833,873.159 454.5,874.5C 454.881,873.069 455.881,872.236 457.5,872C 446.331,872.5 435.997,869.834 426.5,864C 404.792,851.952 384.458,837.952 365.5,822C 352.239,808.245 339.239,794.411 326.5,780.5C 327.675,780.719 328.675,780.386 329.5,779.5C 313.617,735.835 312.45,691.835 326,647.5C 329.001,641.023 332.168,634.69 335.5,628.5C 340.838,619.981 347.172,612.148 354.5,605C 356.895,602.855 359.062,603.022 361,605.5C 358.865,614.382 356.865,623.382 355,632.5C 350.292,667.399 361.458,695.899 388.5,718C 393.5,721.667 398.5,725.333 403.5,729C 406.146,729.497 408.813,729.664 411.5,729.5 Z"/></g>
<g><path style="opacity:1" fill="#96d84f" d="M 94.5,639.5 C 99.0898,640.921 102.256,643.921 104,648.5C 105.635,652.709 106.802,657.042 107.5,661.5C 106.918,667.746 103.584,671.413 97.5,672.5C 93.195,671.759 90.0283,669.426 88,665.5C 87.0118,658.332 87.6784,651.332 90,644.5C 91.0591,642.341 92.5591,640.674 94.5,639.5 Z"/></g>
<g><path style="opacity:1" fill="#449138" d="M 503.5,678.5 C 501.107,682.402 498.107,685.902 494.5,689C 470.094,707.872 443.094,722.039 413.5,731.5C 412.662,731.158 412.328,730.492 412.5,729.5C 446.95,719.452 477.283,702.452 503.5,678.5 Z"/></g>
<g><path style="opacity:1" fill="#1f7612" d="M 326.5,780.5 C 339.239,794.411 352.239,808.245 365.5,822C 384.458,837.952 404.792,851.952 426.5,864C 435.997,869.834 446.331,872.5 457.5,872C 455.881,872.236 454.881,873.069 454.5,874.5C 436.244,877.085 418.911,882.585 402.5,891C 385.56,897.305 368.06,899.805 350,898.5C 315.998,900.659 285.498,891.659 258.5,871.5C 258.804,870.85 259.137,870.183 259.5,869.5C 243.232,839.962 229.399,809.295 218,777.5C 217.503,775.19 217.337,772.857 217.5,770.5C 225.656,761.921 235.656,756.754 247.5,755C 260.959,754.113 273.959,756.113 286.5,761C 300.285,766.727 313.618,773.227 326.5,780.5 Z"/></g>
</svg>
